<svg width="15" height="15" viewBox="0 0 15 15" fill="none" xmlns="http://www.w3.org/2000/svg">
<path d="M15.0004 11.1833C15.0002 11.1833 15 11.1835 15 11.1838V14.13C15.0001 14.341 14.9202 14.5441 14.7763 14.6985C14.6325 14.8528 14.4355 14.9469 14.225 14.9617C13.8608 14.9867 13.5633 15 13.3333 15C5.96917 15 0 9.03083 0 1.66667C0 1.43667 0.0125 1.13917 0.0383333 0.775C0.053102 0.564537 0.147151 0.367509 0.301503 0.223674C0.455855 0.079839 0.659019 -9.53609e-05 0.87 2.13816e-07H3.81667C3.92003 -0.000104445 4.01975 0.0382159 4.09644 0.107517C4.17313 0.176818 4.22133 0.272152 4.23167 0.375C4.25083 0.566667 4.26833 0.719167 4.285 0.835C4.45061 1.99077 4.79 3.11486 5.29167 4.16917C5.37083 4.33583 5.31917 4.535 5.16917 4.64167L4.68105 4.99045C3.91614 5.53702 3.61879 6.55445 4.11299 7.3542C5.00046 8.79038 6.21079 10.0007 7.647 10.8881C8.44661 11.3821 9.46382 11.085 10.0105 10.3204L10.3575 9.835C10.41 9.76167 10.4865 9.70907 10.5737 9.68638C10.661 9.66369 10.7535 9.67234 10.835 9.71083C11.8892 10.2116 13.013 10.5501 14.1683 10.715C14.2842 10.7317 14.4367 10.75 14.6267 10.7683C14.7294 10.7789 14.8245 10.8271 14.8936 10.9038C14.9627 10.9804 15.0009 11.0798 15.0008 11.1829C15.0008 11.1831 15.0006 11.1833 15.0004 11.1833Z" fill="#001645"/>
</svg>
